<svg width="162" height="54" viewBox="0 0 162 54" fill="none" xmlns="http://www.w3.org/2000/svg">
<path d="M17.0341 15.3295H22.7273C22.1591 10.6932 18.0227 7.40909 12.6364 7.40909C6.42045 7.40909 1.51136 11.7841 1.51136 19.3977C1.51136 26.7614 6.03409 31.3182 12.7045 31.3182C18.6932 31.3182 22.9773 27.6023 22.9773 21.3523V18.2727H12.9432V22.375H17.5568C17.5 24.8295 15.8068 26.3864 12.75 26.3864C9.26136 26.3864 7.25 23.8068 7.25 19.3295C7.25 14.8864 9.375 12.3409 12.75 12.3409C15 12.3409 16.5341 13.4432 17.0341 15.3295ZM31.8917 31.3295C36.4713 31.3295 39.4826 29.1136 40.119 25.6818L35.0167 25.5341C34.5849 26.6932 33.4485 27.3182 31.994 27.3182C29.8576 27.3182 28.5394 25.8977 28.5394 23.7614V23.6136H40.1758V22.2273C40.1758 16.4773 36.6758 13.3182 31.7213 13.3182C26.4485 13.3182 23.0622 16.9318 23.0622 22.3409C23.0622 27.9318 26.4031 31.3295 31.8917 31.3295ZM31.8349 17.3295C33.6644 17.3295 34.9826 18.6023 35.0053 20.3864H28.5508C28.619 18.6477 29.994 17.3295 31.8349 17.3295ZM50.3061 13.5455H47.1584V9.36364H41.6016V13.5455H39.2948V17.6364H41.6016V26.125C41.5675 29.6591 43.863 31.4318 47.7834 31.25C49.1243 31.1818 50.0902 30.9091 50.6243 30.75L49.7834 26.7386C49.5448 26.7955 48.988 26.9091 48.5675 26.9091C47.6698 26.9091 47.1584 26.5455 47.1584 25.5114V17.6364H50.3061V13.5455ZM54.8964 7.72727V31H60.3736V16.625H60.5668L66.1577 30.8523H69.6577L75.2486 16.7045H75.4418V31H80.9191V7.72727H73.9532L68.0441 22.1364H67.7714L61.8623 7.72727H54.8964ZM90.0267 31.3295C94.6062 31.3295 97.6176 29.1136 98.254 25.6818L93.1517 25.5341C92.7199 26.6932 91.5835 27.3182 90.129 27.3182C87.9926 27.3182 86.6744 25.8977 86.6744 23.7614V23.6136H98.3108V22.2273C98.3108 16.4773 94.8108 13.3182 89.8562 13.3182C84.5835 13.3182 81.1972 16.9318 81.1972 22.3409C81.1972 27.9318 84.5381 31.3295 90.0267 31.3295ZM89.9699 17.3295C91.7994 17.3295 93.1176 18.6023 93.1403 20.3864H86.6858C86.754 18.6477 88.129 17.3295 89.9699 17.3295Z" fill="#0F0F0F"/>
<path d="M3.154 53.6909L3.154 27.0909H9.31L9.31 48.6749H22.648V53.6909H3.154ZM30.7634 53.9949C28.5847 53.9949 26.6467 53.5389 24.9494 52.6269C23.2774 51.7149 21.9474 50.4736 20.9594 48.9029C19.9967 47.3069 19.5154 45.4956 19.5154 43.4689C19.5154 41.4169 19.9967 39.6056 20.9594 38.0349C21.9474 36.4389 23.2774 35.1976 24.9494 34.3109C26.6467 33.3989 28.5847 32.9429 30.7634 32.9429C32.9167 32.9429 34.842 33.3989 36.5394 34.3109C38.2367 35.1976 39.5667 36.4263 40.5294 37.9969C41.492 39.5676 41.9734 41.3916 41.9734 43.4689C41.9734 45.4956 41.492 47.3069 40.5294 48.9029C39.5667 50.4736 38.2367 51.7149 36.5394 52.6269C34.842 53.5389 32.9167 53.9949 30.7634 53.9949ZM30.7634 49.1309C31.7514 49.1309 32.638 48.9029 33.4234 48.4469C34.2087 47.9909 34.8294 47.3449 35.2854 46.5089C35.7414 45.6476 35.9694 44.6343 35.9694 43.4689C35.9694 42.2783 35.7414 41.2649 35.2854 40.4289C34.8294 39.5929 34.2087 38.9469 33.4234 38.4909C32.638 38.0349 31.7514 37.8069 30.7634 37.8069C29.7754 37.8069 28.8887 38.0349 28.1034 38.4909C27.318 38.9469 26.6847 39.5929 26.2034 40.4289C25.7474 41.2649 25.5194 42.2783 25.5194 43.4689C25.5194 44.6343 25.7474 45.6476 26.2034 46.5089C26.6847 47.3449 27.318 47.9909 28.1034 48.4469C28.8887 48.9029 29.7754 49.1309 30.7634 49.1309ZM51.2558 53.9949C49.0518 53.9949 47.0884 53.5516 45.3658 52.6649C43.6431 51.7529 42.2878 50.4989 41.2998 48.9029C40.3371 47.3069 39.8558 45.4956 39.8558 43.4689C39.8558 41.4169 40.3371 39.6056 41.2998 38.0349C42.2878 36.4389 43.6431 35.1976 45.3658 34.3109C47.0884 33.3989 49.0518 32.9429 51.2558 32.9429C53.4091 32.9429 55.2838 33.3989 56.8798 34.3109C58.4758 35.1976 59.6538 36.4769 60.4138 38.1489L55.8158 40.6189C55.2838 39.6563 54.6124 38.9469 53.8018 38.4909C53.0164 38.0349 52.1551 37.8069 51.2178 37.8069C50.2044 37.8069 49.2924 38.0349 48.4818 38.4909C47.6711 38.9469 47.0251 39.5929 46.5438 40.4289C46.0878 41.2649 45.8598 42.2783 45.8598 43.4689C45.8598 44.6596 46.0878 45.6729 46.5438 46.5089C47.0251 47.3449 47.6711 47.9909 48.4818 48.4469C49.2924 48.9029 50.2044 49.1309 51.2178 49.1309C52.1551 49.1309 53.0164 48.9156 53.8018 48.4849C54.6124 48.0289 55.2838 47.3069 55.8158 46.3189L60.4138 48.8269C59.6538 50.4736 58.4758 51.7529 56.8798 52.6649C55.2838 53.5516 53.4091 53.9949 51.2558 53.9949ZM71.8069 53.6909V49.7009L71.4269 48.8269V41.6829C71.4269 40.4163 71.0343 39.4283 70.2489 38.7189C69.4889 38.0096 68.3109 37.6549 66.7149 37.6549C65.6256 37.6549 64.5489 37.8323 63.4849 38.1869C62.4463 38.5163 61.5596 38.9723 60.8249 39.5549L58.6969 35.4129C59.8116 34.6276 61.1543 34.0196 62.7249 33.5889C64.2956 33.1583 65.8916 32.9429 67.5129 32.9429C70.6289 32.9429 73.0483 33.6776 74.7709 35.1469C76.4936 36.6163 77.3549 38.9089 77.3549 42.0249V53.6909H71.8069ZM65.5749 53.9949C63.9789 53.9949 62.6109 53.7289 61.4709 53.1969C60.3309 52.6396 59.4569 51.8923 58.8489 50.9549C58.2409 50.0176 57.9369 48.9663 57.9369 47.8009C57.9369 46.5849 58.2283 45.5209 58.8109 44.6089C59.4189 43.6969 60.3689 42.9876 61.6609 42.4809C62.9529 41.9489 64.6376 41.6829 66.7149 41.6829H72.1489V45.1409H67.3609C65.9676 45.1409 65.0049 45.3689 64.4729 45.8249C63.9663 46.2809 63.7129 46.8509 63.7129 47.5349C63.7129 48.2949 64.0043 48.9029 64.5869 49.3589C65.1949 49.7896 66.0183 50.0049 67.0569 50.0049C68.0449 50.0049 68.9316 49.7769 69.7169 49.3209C70.5023 48.8396 71.0723 48.1429 71.4269 47.2309L72.3389 49.9669C71.9083 51.2843 71.1229 52.2849 69.9829 52.9689C68.8429 53.6529 67.3736 53.9949 65.5749 53.9949ZM78.1601 53.6909V25.4949H84.0881V53.6909H78.1601ZM85.0297 53.6909V33.2469H90.9577V53.6909H85.0297ZM87.9937 30.3969C86.9044 30.3969 86.0177 30.0803 85.3337 29.4469C84.6497 28.8136 84.3077 28.0282 84.3077 27.0909C84.3077 26.1536 84.6497 25.3682 85.3337 24.7349C86.0177 24.1016 86.9044 23.7849 87.9937 23.7849C89.0831 23.7849 89.9697 24.0889 90.6537 24.6969C91.3377 25.2796 91.6797 26.0396 91.6797 26.9769C91.6797 27.9649 91.3377 28.7883 90.6537 29.4469C89.9951 30.0803 89.1084 30.3969 87.9937 30.3969ZM90.4934 53.6909V50.1189L102.577 35.8309L103.603 37.8069H90.7594V33.2469H108.391V36.8189L96.3074 51.1069L95.2434 49.1309H108.733V53.6909H90.4934ZM117.858 53.9949C115.528 53.9949 113.476 53.5389 111.702 52.6269C109.954 51.7149 108.599 50.4736 107.636 48.9029C106.674 47.3069 106.192 45.4956 106.192 43.4689C106.192 41.4169 106.661 39.6056 107.598 38.0349C108.561 36.4389 109.866 35.1976 111.512 34.3109C113.159 33.3989 115.021 32.9429 117.098 32.9429C119.1 32.9429 120.898 33.3736 122.494 34.2349C124.116 35.0709 125.395 36.2869 126.332 37.8829C127.27 39.4536 127.738 41.3409 127.738 43.5449C127.738 43.7729 127.726 44.0389 127.7 44.3429C127.675 44.6216 127.65 44.8876 127.624 45.1409H111.018V41.6829H124.508L122.228 42.7089C122.228 41.6449 122.013 40.7203 121.582 39.9349C121.152 39.1496 120.556 38.5416 119.796 38.1109C119.036 37.6549 118.15 37.4269 117.136 37.4269C116.123 37.4269 115.224 37.6549 114.438 38.1109C113.678 38.5416 113.083 39.1623 112.652 39.9729C112.222 40.7583 112.006 41.6956 112.006 42.7849V43.6969C112.006 44.8116 112.247 45.7996 112.728 46.6609C113.235 47.4969 113.932 48.1429 114.818 48.5989C115.73 49.0296 116.794 49.2449 118.01 49.2449C119.1 49.2449 120.05 49.0803 120.86 48.7509C121.696 48.4216 122.456 47.9276 123.14 47.2689L126.294 50.6889C125.357 51.7529 124.179 52.5763 122.76 53.1589C121.342 53.7163 119.708 53.9949 117.858 53.9949ZM135.903 53.9949C133.978 53.9949 132.242 53.5643 130.697 52.7029C129.152 51.8163 127.923 50.5876 127.011 49.0169C126.124 47.4463 125.681 45.5969 125.681 43.4689C125.681 41.3156 126.124 39.4536 127.011 37.8829C127.923 36.3123 129.152 35.0963 130.697 34.2349C132.242 33.3736 133.978 32.9429 135.903 32.9429C137.626 32.9429 139.133 33.3229 140.425 34.0829C141.717 34.8429 142.718 35.9956 143.427 37.5409C144.136 39.0863 144.491 41.0623 144.491 43.4689C144.491 45.8503 144.149 47.8263 143.465 49.3969C142.781 50.9423 141.793 52.0949 140.501 52.8549C139.234 53.6149 137.702 53.9949 135.903 53.9949ZM136.929 49.1309C137.892 49.1309 138.766 48.9029 139.551 48.4469C140.336 47.9909 140.957 47.3449 141.413 46.5089C141.894 45.6476 142.135 44.6343 142.135 43.4689C142.135 42.2783 141.894 41.2649 141.413 40.4289C140.957 39.5929 140.336 38.9469 139.551 38.4909C138.766 38.0349 137.892 37.8069 136.929 37.8069C135.941 37.8069 135.054 38.0349 134.269 38.4909C133.484 38.9469 132.85 39.5929 132.369 40.4289C131.913 41.2649 131.685 42.2783 131.685 43.4689C131.685 44.6343 131.913 45.6476 132.369 46.5089C132.85 47.3449 133.484 47.9909 134.269 48.4469C135.054 48.9029 135.941 49.1309 136.929 49.1309ZM142.287 53.6909V49.5109L142.401 43.4309L142.021 37.3889V25.4949H147.949V53.6909H142.287Z" fill="#5AC31D"/>
<path d="M153 37.5909L153 53.8182" stroke="#0F0F0F" stroke-width="1.5"/>
<ellipse cx="153.5" cy="30.5591" rx="8.5" ry="9.19545" fill="#3F8A13"/>
<path d="M161.75 30.5591C161.75 35.5184 158.038 39.5045 153.5 39.5045C148.962 39.5045 145.25 35.5184 145.25 30.5591C145.25 25.5998 148.962 21.6136 153.5 21.6136C158.038 21.6136 161.75 25.5998 161.75 30.5591Z" stroke="black" stroke-opacity="0.15" stroke-width="0.5"/>
<ellipse cx="154.5" cy="30.5591" rx="7.5" ry="8.11364" fill="#5AC31D"/>
</svg>
